<svg id="Layer_1" data-name="Layer 1" xmlns="http://www.w3.org/2000/svg" viewBox="0 0 218 218"><defs><style>.cls-1{fill:none;stroke:#000;stroke-linecap:round;stroke-linejoin:round;stroke-width:8px;}</style></defs><title>settings-icon</title><path class="cls-1" d="M196.83,114,109,201.23a0,0,0,0,1-.07,0L21.09,114.05c-6.6-6.55-7-17.64-.31-24.13a16.88,16.88,0,0,1,23.61.13l47.68,47.34a.06.06,0,0,0,.1,0V33.41a16.79,16.79,0,0,1,28.62-11.77,16.47,16.47,0,0,1,4.92,11.77V137.35a.05.05,0,0,0,.09,0l47.68-47.34a16.88,16.88,0,0,1,25.34,1.82C203.9,98.56,202.79,108.09,196.83,114Z"/></svg>