<svg id="Layer_1" data-name="Layer 1" xmlns="http://www.w3.org/2000/svg" viewBox="0 0 218 218"><defs><style>.cls-1,.cls-2{fill:none;stroke:#000;stroke-linecap:round;stroke-linejoin:round;stroke-width:8px;}.cls-2{stroke-dasharray:1 10;}</style></defs><title>design_1-icon</title><rect class="cls-1" x="96.24" y="6" width="26.71" height="26.71"/><rect class="cls-1" x="12.67" y="89.47" width="26.71" height="26.71"/><path class="cls-1" d="M65.53,31.87A82.73,82.73,0,0,1,96.24,20.41"/><path class="cls-2" d="M34.53,66.09q1.29-2.62,2.74-5.13A83.82,83.82,0,0,1,65.53,31.87"/><path class="cls-1" d="M27.09,89.47a82.76,82.76,0,0,1,7.44-23.38"/><rect class="cls-1" x="179.62" y="89.47" width="26.71" height="26.71"/><path class="cls-1" d="M123,20.44a83.51,83.51,0,0,1,69,69"/><circle class="cls-1" cx="26.03" cy="19.36" r="13.36"/><circle class="cls-1" cx="192.97" cy="19.36" r="13.36"/><line class="cls-1" x1="179.62" y1="19.36" x2="122.96" y2="19.36"/><line class="cls-1" x1="96.24" y1="19.36" x2="39.38" y2="19.36"/><circle class="cls-1" cx="109.71" cy="120.28" r="10.02"/><path class="cls-1" d="M128.5,167c0-23,18.78-33.39,18.78-33.39L109.71,66.09,72.15,133.57S90.93,144,90.93,167"/><line class="cls-1" x1="109.71" y1="66.56" x2="109.71" y2="110.34"/><rect class="cls-1" x="75.06" y="166.96" width="69.31" height="13.57" rx="6.79"/><polyline class="cls-1" points="86.93 213 86.93 180.53 132.49 180.53 132.49 213"/></svg>