<svg id="Layer_1" data-name="Layer 1" xmlns="http://www.w3.org/2000/svg" viewBox="0 0 218 218"><defs><style>.cls-1,.cls-2{fill:none;stroke:#000;stroke-linecap:round;stroke-linejoin:round;stroke-width:8px;}.cls-2{stroke-dasharray:0.81 16.28;}</style></defs><title>development_1-icon</title><path class="cls-1" d="M193.93,125.72V36.52a22.7,22.7,0,0,0-22.7-22.7H27.7A22.7,22.7,0,0,0,5,36.52V147.87a22.7,22.7,0,0,0,22.7,22.7h96.15"/><polyline class="cls-1" points="49.97 132.39 33.07 115.48 50.35 98.2"/><polyline class="cls-1" points="93.93 132.39 110.84 115.48 93.56 98.2"/><line class="cls-1" x1="67.63" y1="135.28" x2="76.27" y2="95.31"/><line class="cls-1" x1="145.22" y1="68.14" x2="193.93" y2="68.14"/><line class="cls-1" x1="110.84" y1="68.14" x2="111.34" y2="68.14"/><line class="cls-2" x1="127.62" y1="68.14" x2="136.58" y2="68.14"/><line class="cls-1" x1="144.72" y1="68.14" x2="145.22" y2="68.14"/><line class="cls-1" x1="5" y1="68.14" x2="110.84" y2="68.14"/><rect class="cls-1" x="21" y="32.07" width="81" height="16.84" rx="8.42"/><circle class="cls-1" cx="163.37" cy="40.27" r="11.09"/><path class="cls-1" d="M211.29,154.28h-6.94a36.39,36.39,0,0,0-4.57-11l4.91-4.91a3.71,3.71,0,0,0,0-5.25l-6.62-6.62a3.71,3.71,0,0,0-5.25,0l-4.91,4.91a36.39,36.39,0,0,0-11-4.57v-6.94a3.71,3.71,0,0,0-3.72-3.71h-9.36a3.71,3.71,0,0,0-3.72,3.71v6.94a36.39,36.39,0,0,0-11,4.57l-4.91-4.91a3.71,3.71,0,0,0-5.25,0l-6.62,6.62a3.71,3.71,0,0,0,0,5.25l4.91,4.91a36.39,36.39,0,0,0-4.57,11h-6.94A3.71,3.71,0,0,0,122,158v9.36a3.71,3.71,0,0,0,3.71,3.72h6.94a36.39,36.39,0,0,0,4.57,11L132.31,187a3.71,3.71,0,0,0,0,5.25l6.62,6.62a3.71,3.71,0,0,0,5.25,0l4.91-4.91a36.39,36.39,0,0,0,11,4.57v6.94a3.71,3.71,0,0,0,3.72,3.71h9.36a3.71,3.71,0,0,0,3.72-3.71v-6.94a36.39,36.39,0,0,0,11-4.57l4.91,4.91a3.71,3.71,0,0,0,5.25,0l6.62-6.62a3.71,3.71,0,0,0,0-5.25l-4.91-4.91a36.39,36.39,0,0,0,4.57-11h6.94a3.71,3.71,0,0,0,3.71-3.72V158A3.71,3.71,0,0,0,211.29,154.28ZM176.9,178a18,18,0,0,1-3.53,1.46,17.53,17.53,0,0,1-9.74,0A18,18,0,0,1,160.1,178a17.56,17.56,0,0,1-6.89-6.89,18,18,0,0,1-1.46-3.53,17.53,17.53,0,0,1,0-9.74,18,18,0,0,1,1.46-3.53,17.56,17.56,0,0,1,6.89-6.89,18,18,0,0,1,3.53-1.46,17.53,17.53,0,0,1,9.74,0,18,18,0,0,1,3.53,1.46,17.56,17.56,0,0,1,6.89,6.89,18,18,0,0,1,1.46,3.53,17.53,17.53,0,0,1,0,9.74,18,18,0,0,1-1.46,3.53A17.56,17.56,0,0,1,176.9,178Z"/></svg>