<svg id="Layer_1" data-name="Layer 1" xmlns="http://www.w3.org/2000/svg" viewBox="0 0 218 218"><defs><style>.cls-1{fill:none;stroke:#000;stroke-linecap:round;stroke-linejoin:round;stroke-width:8px;}</style></defs><title>settings-icon</title><path class="cls-1" d="M181.73,95.33H170a61.53,61.53,0,0,0-7.71-18.59l8.29-8.29a6.28,6.28,0,0,0,0-8.86L159.41,48.4a6.28,6.28,0,0,0-8.86,0l-8.29,8.29A61.53,61.53,0,0,0,123.67,49V37.27A6.26,6.26,0,0,0,117.4,31H101.6a6.26,6.26,0,0,0-6.27,6.27V49a61.53,61.53,0,0,0-18.59,7.71L68.45,48.4a6.28,6.28,0,0,0-8.86,0L48.4,59.59a6.28,6.28,0,0,0,0,8.86l8.29,8.29A61.53,61.53,0,0,0,49,95.33H37.27A6.26,6.26,0,0,0,31,101.6v15.8a6.26,6.26,0,0,0,6.27,6.27H49a61.53,61.53,0,0,0,7.71,18.59l-8.29,8.29a6.28,6.28,0,0,0,0,8.86L59.59,170.6a6.28,6.28,0,0,0,8.86,0l8.29-8.29A61.53,61.53,0,0,0,95.33,170v11.71A6.26,6.26,0,0,0,101.6,188h15.8a6.26,6.26,0,0,0,6.27-6.27V170a61.53,61.53,0,0,0,18.59-7.71l8.29,8.29a6.28,6.28,0,0,0,8.86,0l11.19-11.19a6.28,6.28,0,0,0,0-8.86l-8.29-8.29A61.53,61.53,0,0,0,170,123.67h11.71A6.26,6.26,0,0,0,188,117.4V101.6A6.26,6.26,0,0,0,181.73,95.33Zm-58.06,40a29.48,29.48,0,0,1-28.34,0,29.62,29.62,0,0,1-11.64-11.64,29.48,29.48,0,0,1,0-28.34A29.62,29.62,0,0,1,95.33,83.69a29.48,29.48,0,0,1,28.34,0,29.62,29.62,0,0,1,11.64,11.64,29.48,29.48,0,0,1,0,28.34A29.62,29.62,0,0,1,123.67,135.31Z"/></svg>