<svg id="Layer_1" data-name="Layer 1" xmlns="http://www.w3.org/2000/svg" viewBox="0 0 218 218"><defs><style>.cls-1,.cls-2,.cls-3{fill:none;stroke:#000;stroke-width:8px;}.cls-1,.cls-2{stroke-linecap:round;stroke-linejoin:round;}.cls-2{stroke-dasharray:0.81 16.28;}.cls-3{stroke-miterlimit:10;}</style></defs><title>ui-design-icon</title><path class="cls-1" d="M114.09,170.57H27.7A22.7,22.7,0,0,1,5,147.87V36.52a22.7,22.7,0,0,1,22.7-22.7H171.23a22.7,22.7,0,0,1,22.7,22.7V90.74"/><line class="cls-1" x1="167.18" y1="170.57" x2="146.77" y2="170.57"/><polyline class="cls-1" points="193.93 143.82 193.93 123.41 193.93 118.33"/><line class="cls-1" x1="145.22" y1="68.14" x2="193.93" y2="68.14"/><line class="cls-1" x1="110.84" y1="68.14" x2="111.34" y2="68.14"/><line class="cls-2" x1="127.62" y1="68.14" x2="136.58" y2="68.14"/><line class="cls-1" x1="144.72" y1="68.14" x2="145.22" y2="68.14"/><line class="cls-1" x1="5" y1="68.14" x2="110.84" y2="68.14"/><rect class="cls-1" x="21" y="32.07" width="81" height="16.84" rx="8.42"/><circle class="cls-1" cx="163.37" cy="40.27" r="11.09"/><polygon class="cls-1" points="122.41 105.25 122.41 131.75 99.46 145 99.27 144.89 76.51 131.75 76.51 105.25 76.67 105.16 99.46 92 122.26 105.16 122.41 105.25"/><polygon class="cls-1" points="122.26 105.16 99.46 118.32 76.67 105.16 99.46 92 122.26 105.16"/><line class="cls-1" x1="99.27" y1="144.98" x2="99.27" y2="118.3"/><line class="cls-1" x1="5" y1="85.07" x2="40" y2="85"/><line class="cls-1" x1="5" y1="102.07" x2="26" y2="102"/><path class="cls-3" d="M211.64,89.36a11.55,11.55,0,0,1,0,16.33l-14.08,14.09-73.44,73.44L103.5,197.5l4.28-20.62,79.11-79.11,8.42-8.41A11.53,11.53,0,0,1,211.64,89.36Z"/><line class="cls-3" x1="196.47" y1="120.87" x2="180.13" y2="104.53"/><polygon class="cls-1" points="134.75 203 212.75 203 212.75 125 134.75 203"/><polygon class="cls-1" points="197.25 187.5 171.62 187.5 197.25 161.87 197.25 187.5"/></svg>