<svg xmlns="http://www.w3.org/2000/svg" viewBox="0 0 247.18 224.59"><defs><style>.cls-1{fill:none;stroke:#000;stroke-linecap:round;stroke-linejoin:round;stroke-width:8px;}</style></defs><title>illustration-1</title><g id="Layer_2" data-name="Layer 2"><g id="Layer_3" data-name="Layer 3"><path d="M68.66,37A99.66,99.66,0,0,0,86,42.34a43.13,43.13,0,0,0,8.56.88,21.47,21.47,0,0,0,7.63-1.28,12,12,0,0,0,5.35-4.07,17.43,17.43,0,0,0,2.89-6.74c1.18-5.19.94-11.15.18-17h0a5.5,5.5,0,0,1,10.91-1.41,1.36,1.36,0,0,1,0,.2,80,80,0,0,1,.33,10.19,47.09,47.09,0,0,1-1.5,10.55A27.18,27.18,0,0,1,115.32,44a21.77,21.77,0,0,1-9.84,6.89,30.57,30.57,0,0,1-11,1.48,51.06,51.06,0,0,1-10.26-1.45,107.12,107.12,0,0,1-18.65-6.55A4,4,0,0,1,68.62,37Z"/><path d="M.51,100.82C2.14,97.25,3.81,94,5.57,90.6s3.59-6.62,5.5-9.87a192,192,0,0,1,12.58-18.9Q27.1,57.27,31,53a75.74,75.74,0,0,1,8.53-8,47.62,47.62,0,0,1,10.3-6.41,30.62,30.62,0,0,1,6.05-2l1.61-.29.8-.14.83,0L60.81,36l.83,0,1,0a4,4,0,0,1,0,7.94L62,44h-.37l-.55.06-1.1.09-.56.05-.55.12-1.11.25a22.49,22.49,0,0,0-4.38,1.61,39.42,39.42,0,0,0-8.21,5.55,68.81,68.81,0,0,0-7.3,7.38c-2.29,2.66-4.47,5.46-6.52,8.37A181.25,181.25,0,0,0,20,85.8q-2.58,4.76-4.93,9.63c-1.56,3.22-3.1,6.57-4.42,9.75l0,.08A5.54,5.54,0,1,1,.43,101,1,1,0,0,1,.51,100.82Z"/><path d="M87.08,115.38a4,4,0,0,1-4,4.12H44a4,4,0,0,1-4-4.27c.84-12.31,1.9-31.31,2.17-51.91,0-.85,0-1.33,0-1.41C43.39,44.81,53.05,36.58,62.07,36h.37a26.2,26.2,0,0,1,5.61.76l.3.08C76.89,39.67,82.67,48.71,83.82,61,85.4,78.19,86.5,96.47,87.08,115.38Z"/><path class="cls-1" d="M67.1,40.66A22.27,22.27,0,0,0,62.34,40,12.69,12.69,0,0,1,67.1,40.66Z"/><path d="M87.07,115.38c1.86,34.27,2.06,68.63,1.15,103A6.43,6.43,0,0,1,75.36,218c0-.09,0-.21,0-.31,2.53-33.94,3.94-68,3.71-102a4,4,0,0,1,8-.24Z"/><path d="M48,115.77c-.85,17.3-2.13,34.59-4,51.85s-4.27,34.5-7.59,51.65a6.06,6.06,0,1,1-11.9-2.3c0-.07,0-.14.05-.21v0c3.89-16.58,6.94-33.43,9.45-50.38s4.45-34,6-51.12a4,4,0,0,1,8,.54Z"/><line class="cls-1" x1="83.09" y1="115.5" x2="83.08" y2="115.5"/><line class="cls-1" x1="43.96" y1="115.5" x2="43.95" y2="115.5"/><circle cx="61.6" cy="16" r="16"/><path d="M181.65,44.34A107.12,107.12,0,0,1,163,50.89a51,51,0,0,1-10.25,1.45,30.65,30.65,0,0,1-11.05-1.48A21.77,21.77,0,0,1,131.86,44a27.47,27.47,0,0,1-5.07-10.34,47.06,47.06,0,0,1-1.49-10.55,80,80,0,0,1,.32-10.19,5.5,5.5,0,0,1,11,1c0,.06,0,.12,0,.18v0c-.75,5.87-1,11.83.18,17a17.58,17.58,0,0,0,2.89,6.74A12.05,12.05,0,0,0,145,41.94a21.52,21.52,0,0,0,7.64,1.28,43.13,43.13,0,0,0,8.56-.88A99.56,99.56,0,0,0,178.52,37h0a4,4,0,0,1,3.09,7.37Z"/><path d="M236.5,105.18c-1.33-3.18-2.87-6.53-4.43-9.75s-3.21-6.46-4.93-9.63a181.25,181.25,0,0,0-11.29-18.31c-2-2.91-4.22-5.71-6.52-8.37a68.81,68.81,0,0,0-7.3-7.38,39.16,39.16,0,0,0-8.21-5.55,22.41,22.41,0,0,0-4.37-1.61l-1.11-.25-.56-.12-.55-.05-1.11-.09-.55-.06h-.37l-.69,0a4,4,0,0,1,0-7.94l1,0,.83,0,1.65.09.82,0,.81.14,1.6.29a30.62,30.62,0,0,1,6.05,2A47.7,47.7,0,0,1,207.62,45a76.61,76.61,0,0,1,8.53,8q3.93,4.26,7.38,8.82a190.19,190.19,0,0,1,12.58,18.9q2.87,4.88,5.5,9.87c1.77,3.36,3.43,6.65,5.07,10.22a5.54,5.54,0,0,1-10.07,4.62l-.07-.16Z"/><path d="M160.11,115.38a4,4,0,0,0,4,4.12h39.12a4,4,0,0,0,4-4.27c-.84-12.31-1.9-31.31-2.17-51.91,0-.85,0-1.33,0-1.41-1.22-17.1-10.88-25.33-19.9-25.88h-.37a26.2,26.2,0,0,0-5.61.76l-.3.08C170.3,39.67,164.52,48.71,163.37,61,161.79,78.19,160.69,96.47,160.11,115.38Z"/><path class="cls-1" d="M180.09,40.66a22.27,22.27,0,0,1,4.76-.64A12.69,12.69,0,0,0,180.09,40.66Z"/><path d="M168.11,115.62c-.24,34.06,1.18,68.11,3.7,102a6.43,6.43,0,1,1-12.83,1c0-.09,0-.21,0-.3-.92-34.32-.72-68.68,1.14-103a4,4,0,0,1,8,.24Z"/><path d="M207.22,115.23c1.52,17.11,3.47,34.17,6,51.12s5.56,33.8,9.46,50.38h0a6.06,6.06,0,1,1-11.79,2.78,2,2,0,0,1-.05-.24c-3.32-17.15-5.73-34.39-7.59-51.65s-3.13-34.55-4-51.85a4,4,0,0,1,8-.54Z"/><line class="cls-1" x1="164.1" y1="115.5" x2="164.11" y2="115.5"/><line class="cls-1" x1="203.23" y1="115.5" x2="203.24" y2="115.5"/><circle cx="185.59" cy="16" r="16"/></g></g></svg>